<?xml version="1.0" encoding="UTF-8" standalone="no"?><!DOCTYPE svg PUBLIC "-//W3C//DTD SVG 1.1//EN" "http://www.w3.org/Graphics/SVG/1.1/DTD/svg11.dtd"><svg width="100%" height="100%" viewBox="0 0 600 600" version="1.1" xmlns="http://www.w3.org/2000/svg" xmlns:xlink="http://www.w3.org/1999/xlink" xml:space="preserve" xmlns:serif="http://www.serif.com/" style="fill-rule:evenodd;clip-rule:evenodd;stroke-linejoin:round;stroke-miterlimit:2;"><rect id="Page-9" serif:id="Page 9" x="0" y="0" width="600" height="600" style="fill:none;"/><g id="Logo-06:-600-x-600-px" serif:id="Logo 06: 600 x 600 px"></g><g id="Logo-05:-600-x-600-px" serif:id="Logo 05: 600 x 600 px"></g><g id="Logo-04:-600-x-600-px" serif:id="Logo 04: 600 x 600 px"><path d="M293.941,20.253c-150.862,3.094 -277.524,128.255 -273.645,287.089c3.652,149.537 126.059,272.122 279.243,272.465c156.586,0.203 280.439,-127.503 280.251,-280.225c-0.19,-154.296 -127.517,-282.576 -285.849,-279.329" style="fill:#4294d7;fill-rule:nonzero;"/><path d="M295.354,76.665c-119.254,1.815 -219.403,100.609 -217.507,225.845c1.85,122.273 103.398,221.502 227.842,218.511c120.124,-2.887 220.18,-102.574 216.656,-228.991c-3.375,-121.071 -104.504,-218.555 -226.991,-215.365m240.545,223.248c0.652,129.563 -104.638,233.676 -231.194,236.024c-132.793,2.463 -239.642,-105.024 -240.6,-234.051c-0.977,-131.539 106.973,-238.389 236.649,-237.863c130.19,0.528 235.851,107.002 235.145,235.89" style="fill:#fefefe;fill-rule:nonzero;"/><path d="M197,259.208c0,22.443 0.022,44.885 -0.04,67.327c-0.006,1.863 0.457,2.418 2.373,2.415c41.089,-0.076 82.179,-0.095 123.268,-0.065c1.799,0.002 2.295,-0.475 2.288,-2.281c-0.065,-18.582 -0.065,-37.164 0.001,-55.746c0.007,-1.825 -0.517,-2.282 -2.305,-2.275c-17.665,0.065 -35.332,0.039 -52.998,0.039c-2.948,0 -2.948,0 -2.948,-2.853c-0.001,-24.602 -0.016,-49.203 0.034,-73.805c0.003,-1.719 -0.341,-2.328 -2.227,-2.321c-21.723,0.072 -43.446,0.074 -65.169,-0.002c-1.978,-0.007 -2.322,0.622 -2.317,2.436c0.061,22.377 0.04,44.754 0.04,67.131m215.184,39.879c0,38.48 -0.013,76.96 0.04,115.44c0.002,1.78 -0.427,2.268 -2.241,2.264c-27.551,-0.061 -55.102,-0.062 -82.653,0c-1.922,0.004 -2.54,-0.379 -2.533,-2.449c0.081,-24.606 0.053,-49.213 0.052,-73.819c0,-3.492 -0.005,-2.15 -6.817,-2.666c-11.684,-0.885 -23.422,-1.067 -35.095,-0.047c-7.512,0.656 -7.514,-0.95 -7.514,2.98c0,24.541 -0.021,49.082 0.043,73.622c0.005,1.903 -0.523,2.382 -2.399,2.378c-27.617,-0.06 -55.233,-0.056 -82.85,-0.005c-1.666,0.004 -2.191,-0.322 -2.189,-2.118c0.051,-77.025 0.05,-154.05 0.007,-231.076c-0.001,-1.681 0.343,-2.188 2.124,-2.184c27.747,0.063 55.495,0.059 83.242,0.008c1.139,-0.003 2.061,0.92 2.059,2.059c-0.053,24.671 -0.037,49.343 -0.036,74.015c0,2.581 0.002,2.584 2.515,2.585c14.855,0.001 29.711,-0.034 44.566,0.043c1.907,0.01 2.39,-0.538 2.385,-2.413c-0.061,-24.606 -0.015,-49.212 -0.088,-73.817c-0.006,-2.008 0.519,-2.488 2.503,-2.482c27.551,0.069 55.102,0.063 82.653,0.007c1.767,-0.004 2.272,0.41 2.269,2.236c-0.057,38.479 -0.043,76.959 -0.043,115.439" style="fill:#fefefe;fill-rule:nonzero;"/></g><g id="Logo-03:-600-x-600-px" serif:id="Logo 03: 600 x 600 px"></g><g id="Logo-02:-600-x-600-px" serif:id="Logo 02: 600 x 600 px"></g><g id="Logo-01:-600-x-600-px" serif:id="Logo 01: 600 x 600 px"></g></svg>